<svg xmlns="http://www.w3.org/2000/svg" xmlns:xlink="http://www.w3.org/1999/xlink" contentStyleType="text/css" data-diagram-type="ACTIVITY" height="852px" preserveAspectRatio="none" style="width:387px;height:852px;background:#FFFFFF;" version="1.1" viewBox="0 0 387 852" width="387px" zoomAndPan="magnify"><defs/><g><ellipse cx="255.1069" cy="20" fill="#222222" rx="10" ry="10" style="stroke:#222222;stroke-width:1;"/><rect fill="#F1F1F1" height="33.9688" rx="12.5" ry="12.5" style="stroke:#181818;stroke-width:0.5;" width="98.2168" x="205.9985" y="50"/><text fill="#000000" font-family="sans-serif" font-size="12" lengthAdjust="spacing" textLength="78.2168" x="215.9985" y="71.1387">AT+CMGF=1</text><rect fill="#F1F1F1" height="33.9688" rx="12.5" ry="12.5" style="stroke:#181818;stroke-width:0.5;" width="140.3281" x="184.9429" y="103.9688"/><text fill="#000000" font-family="sans-serif" font-size="12" lengthAdjust="spacing" textLength="120.3281" x="194.9429" y="125.1074">AT+CNMI=2,1,0,0,0</text><rect fill="#F1F1F1" height="33.9688" rx="12.5" ry="12.5" style="stroke:#181818;stroke-width:0.5;" width="154.8594" x="177.6772" y="201.9375"/><text fill="#000000" font-family="sans-serif" font-size="12" lengthAdjust="spacing" textLength="134.8594" x="187.6772" y="223.0762">Esperar evento +CMTI</text><rect fill="#F1F1F1" height="33.9688" rx="12.5" ry="12.5" style="stroke:#181818;stroke-width:0.5;" width="186.8926" x="161.6606" y="255.9063"/><text fill="#000000" font-family="sans-serif" font-size="12" lengthAdjust="spacing" textLength="166.8926" x="171.6606" y="277.0449">Enviar AT+CMGR=&lt;index&gt;</text><rect fill="#F1F1F1" height="33.9688" rx="12.5" ry="12.5" style="stroke:#181818;stroke-width:0.5;" width="182.3047" x="163.9546" y="309.875"/><text fill="#000000" font-family="sans-serif" font-size="12" lengthAdjust="spacing" textLength="162.3047" x="173.9546" y="331.0137">Recibir +CMGR: datos SMS</text><rect fill="#F1F1F1" height="33.9688" rx="12.5" ry="12.5" style="stroke:#181818;stroke-width:0.5;" width="171.5703" x="169.3218" y="363.8438"/><text fill="#000000" font-family="sans-serif" font-size="12" lengthAdjust="spacing" textLength="151.5703" x="179.3218" y="384.9824">Validar remitente y clave</text><rect fill="#F1F1F1" height="33.9688" rx="12.5" ry="12.5" style="stroke:#181818;stroke-width:0.5;" width="147.9219" x="181.146" y="417.8125"/><text fill="#000000" font-family="sans-serif" font-size="12" lengthAdjust="spacing" textLength="127.9219" x="191.146" y="438.9512">Determinar comando</text><path d="M10,481.2813 L10,506.4141 L195.6265,506.4141 L195.6265,491.2813 L185.6265,481.2813 L10,481.2813" fill="#FEFFDD" style="stroke:#181818;stroke-width:0.5;"/><path d="M185.6265,481.2813 L185.6265,491.2813 L195.6265,491.2813 L185.6265,481.2813" fill="#FEFFDD" style="stroke:#181818;stroke-width:0.5;"/><text fill="#000000" font-family="sans-serif" font-size="13" lengthAdjust="spacing" textLength="164.6265" x="16" y="498.3481">Ignorar env&#237;o si no v&#225;lido</text><rect fill="#F1F1F1" height="33.9688" rx="12.5" ry="12.5" style="stroke:#181818;stroke-width:0.5;" width="192.3594" x="158.9272" y="554.8164"/><text fill="#000000" font-family="sans-serif" font-size="12" lengthAdjust="spacing" textLength="172.3594" x="168.9272" y="575.9551">Enviar AT+CMGS="&lt;from&gt;"</text><rect fill="#F1F1F1" height="33.9688" rx="12.5" ry="12.5" style="stroke:#181818;stroke-width:0.5;" width="161.334" x="174.4399" y="623.7852"/><text fill="#000000" font-family="sans-serif" font-size="12" lengthAdjust="spacing" textLength="141.334" x="184.4399" y="644.9238">Enviar &lt;texto&gt; + 0x1A</text><polygon fill="#F1F1F1" points="207.6265,506.4141,302.5874,506.4141,314.5874,518.4141,302.5874,530.4141,207.6265,530.4141,195.6265,518.4141,207.6265,506.4141" style="stroke:#181818;stroke-width:0.5;"/><text fill="#000000" font-family="sans-serif" font-size="11" lengthAdjust="spacing" textLength="8.7871" x="259.1069" y="540.6245">s&#237;</text><text fill="#000000" font-family="sans-serif" font-size="11" lengthAdjust="spacing" textLength="94.9609" x="207.6265" y="522.2222">Comando v&#225;lido?</text><text fill="#000000" font-family="sans-serif" font-size="11" lengthAdjust="spacing" textLength="13.7017" x="314.5874" y="515.8198">no</text><polygon fill="#F1F1F1" points="255.1069,677.7539,267.1069,689.7539,255.1069,701.7539,243.1069,689.7539,255.1069,677.7539" style="stroke:#181818;stroke-width:0.5;"/><rect fill="#F1F1F1" height="33.9688" rx="12.5" ry="12.5" style="stroke:#181818;stroke-width:0.5;" width="187.7949" x="161.2095" y="721.7539"/><text fill="#000000" font-family="sans-serif" font-size="12" lengthAdjust="spacing" textLength="167.7949" x="171.2095" y="742.8926">Enviar AT+CMGD=&lt;index&gt;</text><polygon fill="#F1F1F1" points="255.1069,157.9375,267.1069,169.9375,255.1069,181.9375,243.1069,169.9375,255.1069,157.9375" style="stroke:#181818;stroke-width:0.5;"/><polygon fill="#F1F1F1" points="224.6555,775.7227,285.5583,775.7227,297.5583,787.7227,285.5583,799.7227,224.6555,799.7227,212.6555,787.7227,224.6555,775.7227" style="stroke:#181818;stroke-width:0.5;"/><text fill="#000000" font-family="sans-serif" font-size="11" lengthAdjust="spacing" textLength="60.9028" x="224.6555" y="791.5308">nuevo SMS</text><ellipse cx="255.1069" cy="830.7227" fill="none" rx="11" ry="11" style="stroke:#222222;stroke-width:1;"/><ellipse cx="255.1069" cy="830.7227" fill="#222222" rx="6" ry="6" style="stroke:#222222;stroke-width:1;"/><line style="stroke:#181818;stroke-width:1;" x1="255.1069" x2="255.1069" y1="30" y2="50"/><polygon fill="#181818" points="251.1069,40,255.1069,50,259.1069,40,255.1069,44" style="stroke:#181818;stroke-width:1;"/><line style="stroke:#181818;stroke-width:1;" x1="255.1069" x2="255.1069" y1="83.9688" y2="103.9688"/><polygon fill="#181818" points="251.1069,93.9688,255.1069,103.9688,259.1069,93.9688,255.1069,97.9688" style="stroke:#181818;stroke-width:1;"/><line style="stroke:#181818;stroke-width:1;" x1="255.1069" x2="255.1069" y1="235.9063" y2="255.9063"/><polygon fill="#181818" points="251.1069,245.9063,255.1069,255.9063,259.1069,245.9063,255.1069,249.9063" style="stroke:#181818;stroke-width:1;"/><line style="stroke:#181818;stroke-width:1;" x1="255.1069" x2="255.1069" y1="289.875" y2="309.875"/><polygon fill="#181818" points="251.1069,299.875,255.1069,309.875,259.1069,299.875,255.1069,303.875" style="stroke:#181818;stroke-width:1;"/><line style="stroke:#181818;stroke-width:1;" x1="255.1069" x2="255.1069" y1="343.8438" y2="363.8438"/><polygon fill="#181818" points="251.1069,353.8438,255.1069,363.8438,259.1069,353.8438,255.1069,357.8438" style="stroke:#181818;stroke-width:1;"/><line style="stroke:#181818;stroke-width:1;" x1="255.1069" x2="255.1069" y1="397.8125" y2="417.8125"/><polygon fill="#181818" points="251.1069,407.8125,255.1069,417.8125,259.1069,407.8125,255.1069,411.8125" style="stroke:#181818;stroke-width:1;"/><line style="stroke:#181818;stroke-width:1;" x1="255.1069" x2="255.1069" y1="588.7852" y2="623.7852"/><polygon fill="#181818" points="251.1069,613.7852,255.1069,623.7852,259.1069,613.7852,255.1069,617.7852" style="stroke:#181818;stroke-width:1;"/><line style="stroke:#181818;stroke-width:1;" x1="255.1069" x2="255.1069" y1="530.4141" y2="554.8164"/><polygon fill="#181818" points="251.1069,544.8164,255.1069,554.8164,259.1069,544.8164,255.1069,548.8164" style="stroke:#181818;stroke-width:1;"/><line style="stroke:#181818;stroke-width:1;" x1="314.5874" x2="361.2866" y1="518.4141" y2="518.4141"/><polygon fill="#181818" points="357.2866,596.2852,361.2866,606.2852,365.2866,596.2852,361.2866,600.2852" style="stroke:#181818;stroke-width:1;"/><line style="stroke:#181818;stroke-width:1;" x1="361.2866" x2="361.2866" y1="518.4141" y2="689.7539"/><line style="stroke:#181818;stroke-width:1;" x1="361.2866" x2="267.1069" y1="689.7539" y2="689.7539"/><polygon fill="#181818" points="277.1069,685.7539,267.1069,689.7539,277.1069,693.7539,273.1069,689.7539" style="stroke:#181818;stroke-width:1;"/><line style="stroke:#181818;stroke-width:1;" x1="255.1069" x2="255.1069" y1="657.7539" y2="677.7539"/><polygon fill="#181818" points="251.1069,667.7539,255.1069,677.7539,259.1069,667.7539,255.1069,671.7539" style="stroke:#181818;stroke-width:1;"/><line style="stroke:#181818;stroke-width:1;" x1="255.1069" x2="255.1069" y1="451.7813" y2="506.4141"/><polygon fill="#181818" points="251.1069,496.4141,255.1069,506.4141,259.1069,496.4141,255.1069,500.4141" style="stroke:#181818;stroke-width:1;"/><line style="stroke:#181818;stroke-width:1;" x1="255.1069" x2="255.1069" y1="701.7539" y2="721.7539"/><polygon fill="#181818" points="251.1069,711.7539,255.1069,721.7539,259.1069,711.7539,255.1069,715.7539" style="stroke:#181818;stroke-width:1;"/><line style="stroke:#181818;stroke-width:1;" x1="255.1069" x2="255.1069" y1="181.9375" y2="201.9375"/><polygon fill="#181818" points="251.1069,191.9375,255.1069,201.9375,259.1069,191.9375,255.1069,195.9375" style="stroke:#181818;stroke-width:1;"/><line style="stroke:#181818;stroke-width:1;" x1="297.5583" x2="361.0044" y1="787.7227" y2="787.7227"/><polygon fill="#181818" points="357.0044,471.2813,361.0044,461.2813,365.0044,471.2813,361.0044,467.2813" style="stroke:#181818;stroke-width:1;"/><line style="stroke:#181818;stroke-width:1;" x1="361.0044" x2="361.0044" y1="169.9375" y2="787.7227"/><line style="stroke:#181818;stroke-width:1;" x1="361.0044" x2="267.1069" y1="169.9375" y2="169.9375"/><polygon fill="#181818" points="277.1069,165.9375,267.1069,169.9375,277.1069,173.9375,273.1069,169.9375" style="stroke:#181818;stroke-width:1;"/><line style="stroke:#181818;stroke-width:1;" x1="255.1069" x2="255.1069" y1="755.7227" y2="775.7227"/><polygon fill="#181818" points="251.1069,765.7227,255.1069,775.7227,259.1069,765.7227,255.1069,769.7227" style="stroke:#181818;stroke-width:1;"/><line style="stroke:#181818;stroke-width:1;" x1="255.1069" x2="255.1069" y1="137.9375" y2="157.9375"/><polygon fill="#181818" points="251.1069,147.9375,255.1069,157.9375,259.1069,147.9375,255.1069,151.9375" style="stroke:#181818;stroke-width:1;"/><line style="stroke:#181818;stroke-width:1;" x1="255.1069" x2="255.1069" y1="799.7227" y2="819.7227"/><polygon fill="#181818" points="251.1069,809.7227,255.1069,819.7227,259.1069,809.7227,255.1069,813.7227" style="stroke:#181818;stroke-width:1;"/><!--SRC=[PP5DReCm48NtFiKeAr2o2EcEdrHHabOigAeGTU_242o11ndNfL8kqmFa55oingYgsieRsz_Cc-Vdwp5_ljjSMQ-vqYpSdPVxxF4X2Q9v_vIboMOLhDRJYXXJs27N320yzXqghW0DIarWsyvfv80qmjxFIgSa5hB4OUlG2GlnAXGu4aB9DVMGPxc3BxmHfMrKs0fjDH4-e6YuGKSFg56rGjg2WbekIx9k04G5tdu-Wna_hGBT-w1hbE3ruyst9NyjvSaYhXIrsqNqYyOQ1qrRMC9w27OJmwP7y2JDAfAi9IKkjGuXlKXoZvTcl17qmjBl-LEZB4N5_eLn-0bZpX7UQz5C8zxGq1I4p-n7KFS5]--></g></svg>