<svg xmlns="http://www.w3.org/2000/svg" xmlns:xlink="http://www.w3.org/1999/xlink" contentStyleType="text/css" data-diagram-type="SEQUENCE" height="417px" preserveAspectRatio="none" style="width:346px;height:417px;background:#1B1B1B;" version="1.1" viewBox="0 0 346 417" width="346px" zoomAndPan="magnify"><title>Secuencia simplificada: Prueba SIM800L</title><defs/><g><rect fill="#1B1B1B" height="417" style="stroke:none;stroke-width:1;" width="346" x="0" y="0"/><text fill="#FFFFFF" font-family="sans-serif" font-size="14" font-weight="bold" lengthAdjust="spacing" textLength="318.9785" x="10" y="27.9951">Secuencia simplificada: Prueba SIM800L</text><g><title>ESP32</title><rect fill="#000000" fill-opacity="0.00000" height="308.1953" width="8" x="77.0432" y="73.5938"/><line style="stroke:#E7E7E7;stroke-width:0.5;stroke-dasharray:5.0,5.0;" x1="80.0486" x2="80.0486" y1="73.5938" y2="381.7891"/></g><g><title>SIM800L</title><rect fill="#000000" fill-opacity="0.00000" height="308.1953" width="8" x="247.1218" y="73.5938"/><line style="stroke:#E7E7E7;stroke-width:0.5;stroke-dasharray:5.0,5.0;" x1="250.3137" x2="250.3137" y1="73.5938" y2="381.7891"/></g><g class="participant participant-head" data-participant="ESP"><rect fill="#222222" height="30.2969" rx="2.5" ry="2.5" style="stroke:#E7E7E7;stroke-width:0.5;" width="57.9893" x="52.0486" y="42.2969"/><text fill="#FFFFFF" font-family="sans-serif" font-size="14" lengthAdjust="spacing" textLength="43.9893" x="59.0486" y="62.292">ESP32</text></g><g class="participant participant-tail" data-participant="ESP"><rect fill="#222222" height="30.2969" rx="2.5" ry="2.5" style="stroke:#E7E7E7;stroke-width:0.5;" width="57.9893" x="52.0486" y="380.7891"/><text fill="#FFFFFF" font-family="sans-serif" font-size="14" lengthAdjust="spacing" textLength="43.9893" x="59.0486" y="400.7842">ESP32</text></g><g class="participant participant-head" data-participant="MDM"><rect fill="#222222" height="30.2969" rx="2.5" ry="2.5" style="stroke:#E7E7E7;stroke-width:0.5;" width="73.6162" x="214.3137" y="42.2969"/><text fill="#FFFFFF" font-family="sans-serif" font-size="14" lengthAdjust="spacing" textLength="59.6162" x="221.3137" y="62.292">SIM800L</text></g><g class="participant participant-tail" data-participant="MDM"><rect fill="#222222" height="30.2969" rx="2.5" ry="2.5" style="stroke:#E7E7E7;stroke-width:0.5;" width="73.6162" x="214.3137" y="380.7891"/><text fill="#FFFFFF" font-family="sans-serif" font-size="14" lengthAdjust="spacing" textLength="59.6162" x="221.3137" y="400.7842">SIM800L</text></g><g class="message" data-participant-1="ESP" data-participant-2="MDM"><polygon fill="#E7E7E7" points="239.1218,100.7266,249.1218,104.7266,239.1218,108.7266,243.1218,104.7266" style="stroke:#E7E7E7;stroke-width:1;"/><line style="stroke:#E7E7E7;stroke-width:1;" x1="81.0432" x2="245.1218" y1="104.7266" y2="104.7266"/><text fill="#FFFFFF" font-family="sans-serif" font-size="13" lengthAdjust="spacing" textLength="101.2832" x="88.0432" y="99.6606">Inicializar UART</text></g><g class="message" data-participant-1="ESP" data-participant-2="MDM"><polygon fill="#E7E7E7" points="239.1218,129.8594,249.1218,133.8594,239.1218,137.8594,243.1218,133.8594" style="stroke:#E7E7E7;stroke-width:1;"/><line style="stroke:#E7E7E7;stroke-width:1;" x1="81.0432" x2="245.1218" y1="133.8594" y2="133.8594"/><text fill="#FFFFFF" font-family="sans-serif" font-size="13" lengthAdjust="spacing" textLength="123.5952" x="88.0432" y="128.7935">AT (comprobaci&#243;n)</text></g><g class="message" data-participant-1="ESP" data-participant-2="MDM"><polygon fill="#E7E7E7" points="239.1218,158.9922,249.1218,162.9922,239.1218,166.9922,243.1218,162.9922" style="stroke:#E7E7E7;stroke-width:1;"/><line style="stroke:#E7E7E7;stroke-width:1;" x1="81.0432" x2="245.1218" y1="162.9922" y2="162.9922"/><text fill="#FFFFFF" font-family="sans-serif" font-size="13" lengthAdjust="spacing" textLength="146.0786" x="88.0432" y="157.9263">CMGF=1 (modo texto)</text></g><g class="message" data-participant-1="ESP" data-participant-2="MDM"><polygon fill="#E7E7E7" points="239.1218,188.125,249.1218,192.125,239.1218,196.125,243.1218,192.125" style="stroke:#E7E7E7;stroke-width:1;"/><line style="stroke:#E7E7E7;stroke-width:1;" x1="81.0432" x2="245.1218" y1="192.125" y2="192.125"/><text fill="#FFFFFF" font-family="sans-serif" font-size="13" lengthAdjust="spacing" textLength="99.1313" x="88.0432" y="187.0591">CMGS&lt;NUM1&gt;</text></g><g class="message" data-participant-1="ESP" data-participant-2="MDM"><polygon fill="#E7E7E7" points="239.1218,217.2578,249.1218,221.2578,239.1218,225.2578,243.1218,221.2578" style="stroke:#E7E7E7;stroke-width:1;"/><line style="stroke:#E7E7E7;stroke-width:1;" x1="81.0432" x2="245.1218" y1="221.2578" y2="221.2578"/><text fill="#FFFFFF" font-family="sans-serif" font-size="13" lengthAdjust="spacing" textLength="99.1313" x="88.0432" y="216.1919">CMGS&lt;NUM2&gt;</text></g><g class="message" data-participant-1="ESP" data-participant-2="MDM"><polygon fill="#E7E7E7" points="239.1218,246.3906,249.1218,250.3906,239.1218,254.3906,243.1218,250.3906" style="stroke:#E7E7E7;stroke-width:1;"/><line style="stroke:#E7E7E7;stroke-width:1;" x1="81.0432" x2="245.1218" y1="250.3906" y2="250.3906"/><text fill="#FFFFFF" font-family="sans-serif" font-size="13" lengthAdjust="spacing" textLength="91.7363" x="88.0432" y="245.3247">ATD&lt;NUM1&gt;;</text></g><g class="message" data-participant-1="ESP" data-participant-2="ESP"><line style="stroke:#E7E7E7;stroke-width:1;" x1="81.0432" x2="123.0432" y1="279.5234" y2="279.5234"/><line style="stroke:#E7E7E7;stroke-width:1;" x1="123.0432" x2="123.0432" y1="279.5234" y2="292.5234"/><line style="stroke:#E7E7E7;stroke-width:1;" x1="82.0432" x2="123.0432" y1="292.5234" y2="292.5234"/><polygon fill="#E7E7E7" points="92.0432,288.5234,82.0432,292.5234,92.0432,296.5234,88.0432,292.5234" style="stroke:#E7E7E7;stroke-width:1;"/><text fill="#FFFFFF" font-family="sans-serif" font-size="13" lengthAdjust="spacing" textLength="75.9116" x="88.0432" y="274.4575">espera 10 s</text></g><g class="message" data-participant-1="ESP" data-participant-2="MDM"><polygon fill="#E7E7E7" points="239.1218,317.6563,249.1218,321.6563,239.1218,325.6563,243.1218,321.6563" style="stroke:#E7E7E7;stroke-width:1;"/><line style="stroke:#E7E7E7;stroke-width:1;" x1="81.0432" x2="245.1218" y1="321.6563" y2="321.6563"/><text fill="#FFFFFF" font-family="sans-serif" font-size="13" lengthAdjust="spacing" textLength="26.6094" x="88.0432" y="316.5903">ATH</text></g><g class="message" data-participant-1="ESP" data-participant-2="ESP"><line style="stroke:#E7E7E7;stroke-width:1;" x1="81.0432" x2="123.0432" y1="350.7891" y2="350.7891"/><line style="stroke:#E7E7E7;stroke-width:1;" x1="123.0432" x2="123.0432" y1="350.7891" y2="363.7891"/><line style="stroke:#E7E7E7;stroke-width:1;" x1="82.0432" x2="123.0432" y1="363.7891" y2="363.7891"/><polygon fill="#E7E7E7" points="92.0432,359.7891,82.0432,363.7891,92.0432,367.7891,88.0432,363.7891" style="stroke:#E7E7E7;stroke-width:1;"/><text fill="#FFFFFF" font-family="sans-serif" font-size="13" lengthAdjust="spacing" textLength="84.3223" x="88.0432" y="345.7231">bucle infinito</text></g><!--SRC=[RP1D2i8m44RtFSKiTI6qTIDL2-8_62bM3p2DAGoqIKXJ4A_b4RoO3UeYrTLyVEyD0sF9LW9omLiXEI4qLEkAIk9unGGoque28T-pIHWUWa2ZiSH9exImphDn3DYuu86FxH1RiI3eE8nIbo61lUmqhEYE1YwBqzcdYpCCkAgrKGLoUZxaqETBjjtC8nZKwgh0YfjLlq8-ErvObFxluxH_SFNMfz_UZGH4euL1Y49e-WixtonQtZsGP4cIh7e1]--></g></svg>