<svg xmlns="http://www.w3.org/2000/svg" xmlns:xlink="http://www.w3.org/1999/xlink" contentStyleType="text/css" data-diagram-type="SEQUENCE" height="859px" preserveAspectRatio="none" style="width:433px;height:859px;background:#1B1B1B;" version="1.1" viewBox="0 0 433 859" width="433px" zoomAndPan="magnify"><title>7.1.3 Secuencia: Prueba DTMF</title><defs/><g><rect fill="#1B1B1B" height="859" style="stroke:none;stroke-width:1;" width="433" x="0" y="0"/><text fill="#FFFFFF" font-family="sans-serif" font-size="14" font-weight="bold" lengthAdjust="spacing" textLength="240.6934" x="102.9097" y="27.9951">7.1.3 Secuencia: Prueba DTMF</text><rect fill="none" height="249.7344" style="stroke:#FFFFFF;stroke-width:1.5;" width="407.5127" x="20" y="273.3906"/><rect fill="none" height="134.3359" style="stroke:#FFFFFF;stroke-width:1.5;" width="387.5127" x="30" y="381.7891"/><rect fill="none" height="74.0703" style="stroke:#FFFFFF;stroke-width:1.5;" width="104.707" x="40" y="435.0547"/><rect fill="none" height="161.6641" style="stroke:#FFFFFF;stroke-width:1.5;" width="377.5127" x="40" y="645.5234"/><rect fill="none" height="17.1328" style="stroke:#FFFFFF;stroke-width:1.5;" width="91.9517" x="60" y="783.0547"/><g><title>ESP32</title><rect fill="#000000" fill-opacity="0.00000" height="750.5938" width="8" x="74.9946" y="73.5938"/><line style="stroke:#E7E7E7;stroke-width:0.5;stroke-dasharray:5.0,5.0;" x1="78" x2="78" y1="73.5938" y2="824.1875"/></g><g><title>SIM800L</title><rect fill="#000000" fill-opacity="0.00000" height="750.5938" width="8" x="366.7046" y="73.5938"/><line style="stroke:#E7E7E7;stroke-width:0.5;stroke-dasharray:5.0,5.0;" x1="369.8965" x2="369.8965" y1="73.5938" y2="824.1875"/></g><g class="participant participant-head" data-participant="ESP"><rect fill="#222222" height="30.2969" rx="2.5" ry="2.5" style="stroke:#E7E7E7;stroke-width:0.5;" width="57.9893" x="50" y="42.2969"/><text fill="#FFFFFF" font-family="sans-serif" font-size="14" lengthAdjust="spacing" textLength="43.9893" x="57" y="62.292">ESP32</text></g><g class="participant participant-tail" data-participant="ESP"><rect fill="#222222" height="30.2969" rx="2.5" ry="2.5" style="stroke:#E7E7E7;stroke-width:0.5;" width="57.9893" x="50" y="823.1875"/><text fill="#FFFFFF" font-family="sans-serif" font-size="14" lengthAdjust="spacing" textLength="43.9893" x="57" y="843.1826">ESP32</text></g><g class="participant participant-head" data-participant="MDM"><rect fill="#222222" height="30.2969" rx="2.5" ry="2.5" style="stroke:#E7E7E7;stroke-width:0.5;" width="73.6162" x="333.8965" y="42.2969"/><text fill="#FFFFFF" font-family="sans-serif" font-size="14" lengthAdjust="spacing" textLength="59.6162" x="340.8965" y="62.292">SIM800L</text></g><g class="participant participant-tail" data-participant="MDM"><rect fill="#222222" height="30.2969" rx="2.5" ry="2.5" style="stroke:#E7E7E7;stroke-width:0.5;" width="73.6162" x="333.8965" y="823.1875"/><text fill="#FFFFFF" font-family="sans-serif" font-size="14" lengthAdjust="spacing" textLength="59.6162" x="340.8965" y="843.1826">SIM800L</text></g><g class="message" data-participant-1="ESP" data-participant-2="MDM"><polygon fill="#E7E7E7" points="358.7046,100.7266,368.7046,104.7266,358.7046,108.7266,362.7046,104.7266" style="stroke:#E7E7E7;stroke-width:1;"/><line style="stroke:#E7E7E7;stroke-width:1;" x1="78.9946" x2="364.7046" y1="104.7266" y2="104.7266"/><text fill="#FFFFFF" font-family="sans-serif" font-size="13" lengthAdjust="spacing" textLength="84.7349" x="85.9946" y="99.6606">AT+CMGF=1</text></g><g class="message" data-participant-1="ESP" data-participant-2="MDM"><polygon fill="#E7E7E7" points="358.7046,129.8594,368.7046,133.8594,358.7046,137.8594,362.7046,133.8594" style="stroke:#E7E7E7;stroke-width:1;"/><line style="stroke:#E7E7E7;stroke-width:1;" x1="78.9946" x2="364.7046" y1="133.8594" y2="133.8594"/><text fill="#FFFFFF" font-family="sans-serif" font-size="13" lengthAdjust="spacing" textLength="83.0654" x="85.9946" y="128.7935">AT+DDET=1</text></g><g class="message" data-participant-1="ESP" data-participant-2="MDM"><polygon fill="#E7E7E7" points="358.7046,158.9922,368.7046,162.9922,358.7046,166.9922,362.7046,162.9922" style="stroke:#E7E7E7;stroke-width:1;"/><line style="stroke:#E7E7E7;stroke-width:1;" x1="78.9946" x2="364.7046" y1="162.9922" y2="162.9922"/><text fill="#FFFFFF" font-family="sans-serif" font-size="13" lengthAdjust="spacing" textLength="74.8833" x="85.9946" y="157.9263">AT+CLIP=1</text></g><g class="message" data-participant-1="ESP" data-participant-2="MDM"><polygon fill="#E7E7E7" points="358.7046,188.125,368.7046,192.125,358.7046,196.125,362.7046,192.125" style="stroke:#E7E7E7;stroke-width:1;"/><line style="stroke:#E7E7E7;stroke-width:1;" x1="78.9946" x2="364.7046" y1="192.125" y2="192.125"/><text fill="#FFFFFF" font-family="sans-serif" font-size="13" lengthAdjust="spacing" textLength="130.3555" x="85.9946" y="187.0591">AT+CNMI=2,1,0,0,0</text></g><g class="message" data-participant-1="ESP" data-participant-2="ESP"><line style="stroke:#E7E7E7;stroke-width:1;" x1="78.9946" x2="120.9946" y1="245.3906" y2="245.3906"/><line style="stroke:#E7E7E7;stroke-width:1;" x1="120.9946" x2="120.9946" y1="245.3906" y2="258.3906"/><line style="stroke:#E7E7E7;stroke-width:1;" x1="79.9946" x2="120.9946" y1="258.3906" y2="258.3906"/><polygon fill="#E7E7E7" points="89.9946,254.3906,79.9946,258.3906,89.9946,262.3906,85.9946,258.3906" style="stroke:#E7E7E7;stroke-width:1;"/><text fill="#FFFFFF" font-family="sans-serif" font-size="13" lengthAdjust="spacing" textLength="64.4668" x="85.9946" y="240.3247">leer UART</text></g><path d="M20,273.3906 L84.4429,273.3906 L84.4429,280.5234 L74.4429,290.5234 L20,290.5234 L20,273.3906" fill="#555555" style="stroke:#FFFFFF;stroke-width:1.5;"/><rect fill="none" height="249.7344" style="stroke:#FFFFFF;stroke-width:1.5;" width="407.5127" x="20" y="273.3906"/><text fill="#FFFFFF" font-family="sans-serif" font-size="13" font-weight="bold" lengthAdjust="spacing" textLength="19.4429" x="35" y="286.4575">alt</text><text fill="#FFFFFF" font-family="sans-serif" font-size="11" font-weight="bold" lengthAdjust="spacing" textLength="88.8486" x="99.4429" y="285.6011">[recibe +CLIP]</text><g class="message" data-participant-1="ESP" data-participant-2="ESP"><line style="stroke:#E7E7E7;stroke-width:1;stroke-dasharray:2.0,2.0;" x1="78.9946" x2="120.9946" y1="311.6563" y2="311.6563"/><line style="stroke:#E7E7E7;stroke-width:1;stroke-dasharray:2.0,2.0;" x1="120.9946" x2="120.9946" y1="311.6563" y2="324.6563"/><line style="stroke:#E7E7E7;stroke-width:1;stroke-dasharray:2.0,2.0;" x1="79.9946" x2="120.9946" y1="324.6563" y2="324.6563"/><polygon fill="#E7E7E7" points="89.9946,320.6563,79.9946,324.6563,89.9946,328.6563,85.9946,324.6563" style="stroke:#E7E7E7;stroke-width:1;"/><text fill="#FFFFFF" font-family="sans-serif" font-size="13" lengthAdjust="spacing" textLength="104.2158" x="85.9946" y="306.5903">parsear n&#250;mero</text></g><g class="message" data-participant-1="ESP" data-participant-2="ESP"><line style="stroke:#E7E7E7;stroke-width:1;" x1="78.9946" x2="120.9946" y1="353.7891" y2="353.7891"/><line style="stroke:#E7E7E7;stroke-width:1;" x1="120.9946" x2="120.9946" y1="353.7891" y2="366.7891"/><line style="stroke:#E7E7E7;stroke-width:1;" x1="79.9946" x2="120.9946" y1="366.7891" y2="366.7891"/><polygon fill="#E7E7E7" points="89.9946,362.7891,79.9946,366.7891,89.9946,370.7891,85.9946,366.7891" style="stroke:#E7E7E7;stroke-width:1;"/><text fill="#FFFFFF" font-family="sans-serif" font-size="13" lengthAdjust="spacing" textLength="126.6802" x="85.9946" y="348.7231">remitente_valido()?</text></g><path d="M30,381.7891 L94.4429,381.7891 L94.4429,388.9219 L84.4429,398.9219 L30,398.9219 L30,381.7891" fill="#555555" style="stroke:#FFFFFF;stroke-width:1.5;"/><rect fill="none" height="134.3359" style="stroke:#FFFFFF;stroke-width:1.5;" width="387.5127" x="30" y="381.7891"/><text fill="#FFFFFF" font-family="sans-serif" font-size="13" font-weight="bold" lengthAdjust="spacing" textLength="19.4429" x="45" y="394.856">alt</text><text fill="#FFFFFF" font-family="sans-serif" font-size="11" font-weight="bold" lengthAdjust="spacing" textLength="47.6201" x="109.4429" y="393.9995">[v&#225;lido]</text><g class="message" data-participant-1="ESP" data-participant-2="MDM"><polygon fill="#E7E7E7" points="358.7046,416.0547,368.7046,420.0547,358.7046,424.0547,362.7046,420.0547" style="stroke:#E7E7E7;stroke-width:1;"/><line style="stroke:#E7E7E7;stroke-width:1;" x1="78.9946" x2="364.7046" y1="420.0547" y2="420.0547"/><text fill="#FFFFFF" font-family="sans-serif" font-size="13" lengthAdjust="spacing" textLength="25.7271" x="85.9946" y="414.9888">ATA</text></g><path d="M40,435.0547 L126.9517,435.0547 L126.9517,442.1875 L116.9517,452.1875 L40,452.1875 L40,435.0547" fill="#555555" style="stroke:#FFFFFF;stroke-width:1.5;"/><rect fill="none" height="74.0703" style="stroke:#FFFFFF;stroke-width:1.5;" width="104.707" x="40" y="435.0547"/><text fill="#FFFFFF" font-family="sans-serif" font-size="13" font-weight="bold" lengthAdjust="spacing" textLength="41.9517" x="55" y="448.1216">break</text><line style="stroke:#FFFFFF;stroke-width:1;stroke-dasharray:2.0,2.0;" x1="40" x2="144.707" y1="453.1875" y2="453.1875"/><text fill="#FFFFFF" font-family="sans-serif" font-size="11" font-weight="bold" lengthAdjust="spacing" textLength="59.2217" x="45" y="463.3979">[inv&#225;lido]</text><g class="message" data-participant-1="ESP" data-participant-2="ESP"><line style="stroke:#E7E7E7;stroke-width:1;stroke-dasharray:2.0,2.0;" x1="78.9946" x2="120.9946" y1="488.125" y2="488.125"/><line style="stroke:#E7E7E7;stroke-width:1;stroke-dasharray:2.0,2.0;" x1="120.9946" x2="120.9946" y1="488.125" y2="501.125"/><line style="stroke:#E7E7E7;stroke-width:1;stroke-dasharray:2.0,2.0;" x1="79.9946" x2="120.9946" y1="501.125" y2="501.125"/><polygon fill="#E7E7E7" points="89.9946,497.125,79.9946,501.125,89.9946,505.125,85.9946,501.125" style="stroke:#E7E7E7;stroke-width:1;"/><text fill="#FFFFFF" font-family="sans-serif" font-size="13" lengthAdjust="spacing" textLength="46.7124" x="85.9946" y="483.0591">ignorar</text></g><g class="message" data-participant-1="ESP" data-participant-2="ESP"><line style="stroke:#E7E7E7;stroke-width:1;" x1="78.9946" x2="120.9946" y1="551.2578" y2="551.2578"/><line style="stroke:#E7E7E7;stroke-width:1;" x1="120.9946" x2="120.9946" y1="551.2578" y2="564.2578"/><line style="stroke:#E7E7E7;stroke-width:1;" x1="79.9946" x2="120.9946" y1="564.2578" y2="564.2578"/><polygon fill="#E7E7E7" points="89.9946,560.2578,79.9946,564.2578,89.9946,568.2578,85.9946,564.2578" style="stroke:#E7E7E7;stroke-width:1;"/><text fill="#FFFFFF" font-family="sans-serif" font-size="13" lengthAdjust="spacing" textLength="129.6255" x="85.9946" y="546.1919">escuchando +DTMF</text></g><g class="message" data-participant-1="ESP" data-participant-2="ESP"><line style="stroke:#E7E7E7;stroke-width:1;" x1="78.9946" x2="120.9946" y1="617.5234" y2="617.5234"/><line style="stroke:#E7E7E7;stroke-width:1;" x1="120.9946" x2="120.9946" y1="617.5234" y2="630.5234"/><line style="stroke:#E7E7E7;stroke-width:1;" x1="79.9946" x2="120.9946" y1="630.5234" y2="630.5234"/><polygon fill="#E7E7E7" points="89.9946,626.5234,79.9946,630.5234,89.9946,634.5234,85.9946,630.5234" style="stroke:#E7E7E7;stroke-width:1;"/><text fill="#FFFFFF" font-family="sans-serif" font-size="13" lengthAdjust="spacing" textLength="64.4668" x="85.9946" y="612.4575">leer UART</text></g><path d="M40,645.5234 L104.4429,645.5234 L104.4429,652.6563 L94.4429,662.6563 L40,662.6563 L40,645.5234" fill="#555555" style="stroke:#FFFFFF;stroke-width:1.5;"/><rect fill="none" height="161.6641" style="stroke:#FFFFFF;stroke-width:1.5;" width="377.5127" x="40" y="645.5234"/><text fill="#FFFFFF" font-family="sans-serif" font-size="13" font-weight="bold" lengthAdjust="spacing" textLength="19.4429" x="55" y="658.5903">alt</text><text fill="#FFFFFF" font-family="sans-serif" font-size="11" font-weight="bold" lengthAdjust="spacing" textLength="96.7065" x="119.4429" y="657.7339">[recibe +DTMF]</text><g class="message" data-participant-1="ESP" data-participant-2="ESP"><line style="stroke:#E7E7E7;stroke-width:1;stroke-dasharray:2.0,2.0;" x1="78.9946" x2="120.9946" y1="683.7891" y2="683.7891"/><line style="stroke:#E7E7E7;stroke-width:1;stroke-dasharray:2.0,2.0;" x1="120.9946" x2="120.9946" y1="683.7891" y2="696.7891"/><line style="stroke:#E7E7E7;stroke-width:1;stroke-dasharray:2.0,2.0;" x1="79.9946" x2="120.9946" y1="696.7891" y2="696.7891"/><polygon fill="#E7E7E7" points="89.9946,692.7891,79.9946,696.7891,89.9946,700.7891,85.9946,696.7891" style="stroke:#E7E7E7;stroke-width:1;"/><text fill="#FFFFFF" font-family="sans-serif" font-size="13" lengthAdjust="spacing" textLength="102.1846" x="85.9946" y="678.7231">extraer &lt;digit&gt;</text></g><g class="message" data-participant-1="ESP" data-participant-2="MDM"><polygon fill="#E7E7E7" points="358.7046,721.9219,368.7046,725.9219,358.7046,729.9219,362.7046,725.9219" style="stroke:#E7E7E7;stroke-width:1;"/><line style="stroke:#E7E7E7;stroke-width:1;" x1="78.9946" x2="364.7046" y1="725.9219" y2="725.9219"/><text fill="#FFFFFF" font-family="sans-serif" font-size="13" lengthAdjust="spacing" textLength="26.6094" x="85.9946" y="720.856">ATH</text></g><g class="message" data-participant-1="ESP" data-participant-2="ESP"><line style="stroke:#E7E7E7;stroke-width:1;" x1="78.9946" x2="120.9946" y1="755.0547" y2="755.0547"/><line style="stroke:#E7E7E7;stroke-width:1;" x1="120.9946" x2="120.9946" y1="755.0547" y2="768.0547"/><line style="stroke:#E7E7E7;stroke-width:1;" x1="79.9946" x2="120.9946" y1="768.0547" y2="768.0547"/><polygon fill="#E7E7E7" points="89.9946,764.0547,79.9946,768.0547,89.9946,772.0547,85.9946,768.0547" style="stroke:#E7E7E7;stroke-width:1;"/><text fill="#FFFFFF" font-family="sans-serif" font-size="13" lengthAdjust="spacing" textLength="277.71" x="85.9946" y="749.9888">send_sms(caller, "DTMF &lt;digit&gt; recibido")</text></g><path d="M60,783.0547 L146.9517,783.0547 L146.9517,790.1875 L136.9517,800.1875 L60,800.1875 L60,783.0547" fill="#555555" style="stroke:#FFFFFF;stroke-width:1.5;"/><rect fill="none" height="17.1328" style="stroke:#FFFFFF;stroke-width:1.5;" width="91.9517" x="60" y="783.0547"/><text fill="#FFFFFF" font-family="sans-serif" font-size="13" font-weight="bold" lengthAdjust="spacing" textLength="41.9517" x="75" y="796.1216">break</text><!--SRC=[ZL7BRi8m4BpxArQSG534uz0A5If4e4KYLLJICrgS5RNgECWsgB_Jt-YL7wjj0YqbXofoifwTtTcTM64bmMsxs-x3alYE51SuW4JlQ8qGfV6CiIrgAxZOeh8mNIRz7g3nmKLYEO_lEfs5JyLHp9ZBmyt8np20STgSn8-pOVSAZg9fMW5F5lEa2dwEvyDUgzlg-8V9ejY2b9XZXa3AQZS8CO2op7y688aql8vVKfT0QK4J5sk28E6WadsckvqCeGPr-Cf95p-C4q5JBgmJezKUfSYAUkC18D1yz_tXquFXVYuypJykuRKcV0ynIKCWL4NLMKziLA5H7-agOyUtFnTZaU4x_eOgAw0PVbim9qJ_DAJa_jMd3-UhgxZFn4RO4QlOw-dQ9UC6N9dSr3bAIRe5DT_-rEIewJQkDTXlGyhDlW40]--></g></svg>