<svg xmlns="http://www.w3.org/2000/svg" xmlns:xlink="http://www.w3.org/1999/xlink" contentStyleType="text/css" data-diagram-type="SEQUENCE" height="683px" preserveAspectRatio="none" style="width:361px;height:683px;background:#1B1B1B;" version="1.1" viewBox="0 0 361 683" width="361px" zoomAndPan="magnify"><title>7.1.5 Secuencia: Men&#250; h&#237;brido DTMF&#8209;SMS</title><defs/><g><rect fill="#1B1B1B" height="683" style="stroke:none;stroke-width:1;" width="361" x="0" y="0"/><text fill="#FFFFFF" font-family="sans-serif" font-size="14" font-weight="bold" lengthAdjust="spacing" textLength="328.8701" x="15.0728" y="27.9951">7.1.5 Secuencia: Men&#250; h&#237;brido DTMF&#8209;SMS</text><rect fill="none" height="17.1328" style="stroke:#FFFFFF;stroke-width:1.5;" width="91.9517" x="40" y="344.6563"/><rect fill="none" height="17.1328" style="stroke:#FFFFFF;stroke-width:1.5;" width="91.9517" x="40" y="513.3203"/><g><title>ESP32</title><rect fill="#000000" fill-opacity="0.00000" height="574.2578" width="8" x="54.9946" y="73.5938"/><line style="stroke:#E7E7E7;stroke-width:0.5;stroke-dasharray:5.0,5.0;" x1="58" x2="58" y1="73.5938" y2="647.8516"/></g><g><title>SIM800L</title><rect fill="#000000" fill-opacity="0.00000" height="574.2578" width="8" x="289.2075" y="73.5938"/><line style="stroke:#E7E7E7;stroke-width:0.5;stroke-dasharray:5.0,5.0;" x1="292.3994" x2="292.3994" y1="73.5938" y2="647.8516"/></g><g class="participant participant-head" data-participant="ESP"><rect fill="#222222" height="30.2969" rx="2.5" ry="2.5" style="stroke:#E7E7E7;stroke-width:0.5;" width="57.9893" x="30" y="42.2969"/><text fill="#FFFFFF" font-family="sans-serif" font-size="14" lengthAdjust="spacing" textLength="43.9893" x="37" y="62.292">ESP32</text></g><g class="participant participant-tail" data-participant="ESP"><rect fill="#222222" height="30.2969" rx="2.5" ry="2.5" style="stroke:#E7E7E7;stroke-width:0.5;" width="57.9893" x="30" y="646.8516"/><text fill="#FFFFFF" font-family="sans-serif" font-size="14" lengthAdjust="spacing" textLength="43.9893" x="37" y="666.8467">ESP32</text></g><g class="participant participant-head" data-participant="MDM"><rect fill="#222222" height="30.2969" rx="2.5" ry="2.5" style="stroke:#E7E7E7;stroke-width:0.5;" width="73.6162" x="256.3994" y="42.2969"/><text fill="#FFFFFF" font-family="sans-serif" font-size="14" lengthAdjust="spacing" textLength="59.6162" x="263.3994" y="62.292">SIM800L</text></g><g class="participant participant-tail" data-participant="MDM"><rect fill="#222222" height="30.2969" rx="2.5" ry="2.5" style="stroke:#E7E7E7;stroke-width:0.5;" width="73.6162" x="256.3994" y="646.8516"/><text fill="#FFFFFF" font-family="sans-serif" font-size="14" lengthAdjust="spacing" textLength="59.6162" x="263.3994" y="666.8467">SIM800L</text></g><g class="message" data-participant-1="ESP" data-participant-2="MDM"><polygon fill="#E7E7E7" points="281.2075,100.7266,291.2075,104.7266,281.2075,108.7266,285.2075,104.7266" style="stroke:#E7E7E7;stroke-width:1;"/><line style="stroke:#E7E7E7;stroke-width:1;" x1="58.9946" x2="287.2075" y1="104.7266" y2="104.7266"/><text fill="#FFFFFF" font-family="sans-serif" font-size="13" lengthAdjust="spacing" textLength="84.7349" x="65.9946" y="99.6606">AT+CMGF=1</text></g><g class="message" data-participant-1="ESP" data-participant-2="MDM"><polygon fill="#E7E7E7" points="281.2075,129.8594,291.2075,133.8594,281.2075,137.8594,285.2075,133.8594" style="stroke:#E7E7E7;stroke-width:1;"/><line style="stroke:#E7E7E7;stroke-width:1;" x1="58.9946" x2="287.2075" y1="133.8594" y2="133.8594"/><text fill="#FFFFFF" font-family="sans-serif" font-size="13" lengthAdjust="spacing" textLength="130.3555" x="65.9946" y="128.7935">AT+CNMI=2,1,0,0,0</text></g><g class="message" data-participant-1="ESP" data-participant-2="MDM"><polygon fill="#E7E7E7" points="281.2075,158.9922,291.2075,162.9922,281.2075,166.9922,285.2075,162.9922" style="stroke:#E7E7E7;stroke-width:1;"/><line style="stroke:#E7E7E7;stroke-width:1;" x1="58.9946" x2="287.2075" y1="162.9922" y2="162.9922"/><text fill="#FFFFFF" font-family="sans-serif" font-size="13" lengthAdjust="spacing" textLength="74.8833" x="65.9946" y="157.9263">AT+CLIP=1</text></g><g class="message" data-participant-1="ESP" data-participant-2="MDM"><polygon fill="#E7E7E7" points="281.2075,188.125,291.2075,192.125,281.2075,196.125,285.2075,192.125" style="stroke:#E7E7E7;stroke-width:1;"/><line style="stroke:#E7E7E7;stroke-width:1;" x1="58.9946" x2="287.2075" y1="192.125" y2="192.125"/><text fill="#FFFFFF" font-family="sans-serif" font-size="13" lengthAdjust="spacing" textLength="83.0654" x="65.9946" y="187.0591">AT+DDET=1</text></g><g class="message" data-participant-1="ESP" data-participant-2="ESP"><line style="stroke:#E7E7E7;stroke-width:1;stroke-dasharray:2.0,2.0;" x1="58.9946" x2="100.9946" y1="245.3906" y2="245.3906"/><line style="stroke:#E7E7E7;stroke-width:1;stroke-dasharray:2.0,2.0;" x1="100.9946" x2="100.9946" y1="245.3906" y2="258.3906"/><line style="stroke:#E7E7E7;stroke-width:1;stroke-dasharray:2.0,2.0;" x1="59.9946" x2="100.9946" y1="258.3906" y2="258.3906"/><polygon fill="#E7E7E7" points="69.9946,254.3906,59.9946,258.3906,69.9946,262.3906,65.9946,258.3906" style="stroke:#E7E7E7;stroke-width:1;"/><text fill="#FFFFFF" font-family="sans-serif" font-size="13" lengthAdjust="spacing" textLength="79.498" x="65.9946" y="240.3247">leer '+CLIP:'</text></g><g class="message" data-participant-1="ESP" data-participant-2="ESP"><line style="stroke:#E7E7E7;stroke-width:1;stroke-dasharray:2.0,2.0;" x1="58.9946" x2="100.9946" y1="287.5234" y2="287.5234"/><line style="stroke:#E7E7E7;stroke-width:1;stroke-dasharray:2.0,2.0;" x1="100.9946" x2="100.9946" y1="287.5234" y2="300.5234"/><line style="stroke:#E7E7E7;stroke-width:1;stroke-dasharray:2.0,2.0;" x1="59.9946" x2="100.9946" y1="300.5234" y2="300.5234"/><polygon fill="#E7E7E7" points="69.9946,296.5234,59.9946,300.5234,69.9946,304.5234,65.9946,300.5234" style="stroke:#E7E7E7;stroke-width:1;"/><text fill="#FFFFFF" font-family="sans-serif" font-size="13" lengthAdjust="spacing" textLength="112.6265" x="65.9946" y="282.4575">validar remitente</text></g><g class="message" data-participant-1="ESP" data-participant-2="MDM"><polygon fill="#E7E7E7" points="281.2075,325.6563,291.2075,329.6563,281.2075,333.6563,285.2075,329.6563" style="stroke:#E7E7E7;stroke-width:1;"/><line style="stroke:#E7E7E7;stroke-width:1;" x1="58.9946" x2="287.2075" y1="329.6563" y2="329.6563"/><text fill="#FFFFFF" font-family="sans-serif" font-size="13" lengthAdjust="spacing" textLength="25.7271" x="65.9946" y="324.5903">ATA</text></g><path d="M40,344.6563 L126.9517,344.6563 L126.9517,351.7891 L116.9517,361.7891 L40,361.7891 L40,344.6563" fill="#555555" style="stroke:#FFFFFF;stroke-width:1.5;"/><rect fill="none" height="17.1328" style="stroke:#FFFFFF;stroke-width:1.5;" width="91.9517" x="40" y="344.6563"/><text fill="#FFFFFF" font-family="sans-serif" font-size="13" font-weight="bold" lengthAdjust="spacing" textLength="41.9517" x="55" y="357.7231">break</text><g class="message" data-participant-1="ESP" data-participant-2="ESP"><line style="stroke:#E7E7E7;stroke-width:1;stroke-dasharray:2.0,2.0;" x1="58.9946" x2="100.9946" y1="414.0547" y2="414.0547"/><line style="stroke:#E7E7E7;stroke-width:1;stroke-dasharray:2.0,2.0;" x1="100.9946" x2="100.9946" y1="414.0547" y2="427.0547"/><line style="stroke:#E7E7E7;stroke-width:1;stroke-dasharray:2.0,2.0;" x1="59.9946" x2="100.9946" y1="427.0547" y2="427.0547"/><polygon fill="#E7E7E7" points="69.9946,423.0547,59.9946,427.0547,69.9946,431.0547,65.9946,427.0547" style="stroke:#E7E7E7;stroke-width:1;"/><text fill="#FFFFFF" font-family="sans-serif" font-size="13" lengthAdjust="spacing" textLength="150.7188" x="65.9946" y="408.9888">leer '+DTMF:"&lt;digit&gt;"'</text></g><g class="message" data-participant-1="ESP" data-participant-2="ESP"><line style="stroke:#E7E7E7;stroke-width:1;stroke-dasharray:2.0,2.0;" x1="58.9946" x2="100.9946" y1="456.1875" y2="456.1875"/><line style="stroke:#E7E7E7;stroke-width:1;stroke-dasharray:2.0,2.0;" x1="100.9946" x2="100.9946" y1="456.1875" y2="469.1875"/><line style="stroke:#E7E7E7;stroke-width:1;stroke-dasharray:2.0,2.0;" x1="59.9946" x2="100.9946" y1="469.1875" y2="469.1875"/><polygon fill="#E7E7E7" points="69.9946,465.1875,59.9946,469.1875,69.9946,473.1875,65.9946,469.1875" style="stroke:#E7E7E7;stroke-width:1;"/><text fill="#FFFFFF" font-family="sans-serif" font-size="13" lengthAdjust="spacing" textLength="149.2271" x="65.9946" y="451.1216">mapear &lt;digit&gt; a cmd</text></g><g class="message" data-participant-1="ESP" data-participant-2="MDM"><polygon fill="#E7E7E7" points="281.2075,494.3203,291.2075,498.3203,281.2075,502.3203,285.2075,498.3203" style="stroke:#E7E7E7;stroke-width:1;"/><line style="stroke:#E7E7E7;stroke-width:1;" x1="58.9946" x2="287.2075" y1="498.3203" y2="498.3203"/><text fill="#FFFFFF" font-family="sans-serif" font-size="13" lengthAdjust="spacing" textLength="26.6094" x="65.9946" y="493.2544">ATH</text></g><path d="M40,513.3203 L126.9517,513.3203 L126.9517,520.4531 L116.9517,530.4531 L40,530.4531 L40,513.3203" fill="#555555" style="stroke:#FFFFFF;stroke-width:1.5;"/><rect fill="none" height="17.1328" style="stroke:#FFFFFF;stroke-width:1.5;" width="91.9517" x="40" y="513.3203"/><text fill="#FFFFFF" font-family="sans-serif" font-size="13" font-weight="bold" lengthAdjust="spacing" textLength="41.9517" x="55" y="526.3872">break</text><g class="message" data-participant-1="ESP" data-participant-2="ESP"><line style="stroke:#E7E7E7;stroke-width:1;stroke-dasharray:2.0,2.0;" x1="58.9946" x2="100.9946" y1="558.5859" y2="558.5859"/><line style="stroke:#E7E7E7;stroke-width:1;stroke-dasharray:2.0,2.0;" x1="100.9946" x2="100.9946" y1="558.5859" y2="571.5859"/><line style="stroke:#E7E7E7;stroke-width:1;stroke-dasharray:2.0,2.0;" x1="59.9946" x2="100.9946" y1="571.5859" y2="571.5859"/><polygon fill="#E7E7E7" points="69.9946,567.5859,59.9946,571.5859,69.9946,575.5859,65.9946,571.5859" style="stroke:#E7E7E7;stroke-width:1;"/><text fill="#FFFFFF" font-family="sans-serif" font-size="13" lengthAdjust="spacing" textLength="220.2129" x="65.9946" y="553.52">procesar cmd con procesar_sms()</text></g><g class="message" data-participant-1="ESP" data-participant-2="MDM"><polygon fill="#E7E7E7" points="281.2075,596.7188,291.2075,600.7188,281.2075,604.7188,285.2075,600.7188" style="stroke:#E7E7E7;stroke-width:1;"/><line style="stroke:#E7E7E7;stroke-width:1;" x1="58.9946" x2="287.2075" y1="600.7188" y2="600.7188"/><text fill="#FFFFFF" font-family="sans-serif" font-size="13" lengthAdjust="spacing" textLength="146.6626" x="65.9946" y="595.6528">AT+CMGS="&lt;caller&gt;"</text></g><g class="message" data-participant-1="ESP" data-participant-2="MDM"><polygon fill="#E7E7E7" points="281.2075,625.8516,291.2075,629.8516,281.2075,633.8516,285.2075,629.8516" style="stroke:#E7E7E7;stroke-width:1;"/><line style="stroke:#E7E7E7;stroke-width:1;" x1="58.9946" x2="287.2075" y1="629.8516" y2="629.8516"/><text fill="#FFFFFF" font-family="sans-serif" font-size="13" lengthAdjust="spacing" textLength="138.5122" x="65.9946" y="624.7856">&lt;respuesta&gt; + 0x1A</text></g><!--SRC=[TP7FIiD04CRlUOeXbogj9Qc84f90CAq6kgMGt6Mw6NHnyuVDLZpw2Zw8B-2rR-AJk1j53QdiOOVlc_b-owmMMX9Spltv1UJ4zrHpWG4mgW_ly71usobHDf0MRFNnyfgpt75QL5fmqMAjOPblpnU0dIq6HfwnAyzRMukbp76C3sUnhI60f9XUivjLv8_b3SkYnSoVUVQCxNMsFJALfil2oB9fMf0IAomHgDRAF8GSWBxTzDix04caOD971PEH-uHIbAX0KIKq_Pd_nIL6sYd2HuVgyWjQzTkoI_eFPxt03KjnBtJiZhaLjcImtms0mAjoZBuTe8S9hMeuTIR3J09lwX_XhgkwazDZFv17RiXHIbAnE_H3HLsxfqvZ35Fmdlta4m00]--></g></svg>